/* XPM */
static char *GeoDaIcon_16x16_xpm[] = {
/* columns rows colors chars-per-pixel */
"16 16 123 2",
"   c black",
".  c #010000",
"X  c #000001",
"o  c #010102",
"O  c #010203",
"+  c #060301",
"@  c #010204",
"#  c #060425",
"$  c #051B31",
"%  c #472507",
"&  c #4C2608",
"*  c #542A08",
"=  c #6A370A",
"-  c #6F380B",
";  c #72390B",
":  c #773C0B",
">  c #743E0B",
",  c #006D0F",
"<  c #127219",
"1  c #7F400D",
"2  c #0A316E",
"3  c #037863",
"4  c #86360E",
"5  c #8B460E",
"6  c #8D470E",
"7  c #90480E",
"8  c #95490F",
"9  c #964B0F",
"0  c #974C0F",
"q  c #9C4D0F",
"w  c #9C4E0F",
"e  c #9E4F0F",
"r  c #A05010",
"t  c #A05110",
"y  c #A55310",
"u  c #AB5710",
"i  c #B15911",
"p  c #B35911",
"a  c #B55B11",
"s  c #8F7B09",
"d  c #BF6012",
"f  c #BF6112",
"g  c #C16113",
"h  c #C36013",
"j  c #C76413",
"k  c #DB6E15",
"l  c #E17116",
"z  c #E27116",
"x  c #E57016",
"c  c #E57216",
"v  c #E57316",
"b  c #E67316",
"n  c #E77517",
"m  c #E17E14",
"M  c #EC7F14",
"N  c #F07517",
"B  c #F47A17",
"V  c #F67B17",
"C  c #F67C17",
"Z  c #FF771A",
"A  c #FA7D18",
"S  c #078A1D",
"D  c #359D19",
"F  c #06943B",
"G  c #04B535",
"H  c #538A0E",
"J  c #5C9F0A",
"K  c #7C9600",
"L  c #749803",
"P  c #74B30A",
"I  c #08DE38",
"U  c #00E137",
"Y  c #54CB01",
"T  c #40DE24",
"R  c #40E124",
"E  c #41EC27",
"W  c #018777",
"Q  c #04DD56",
"!  c #07E358",
"~  c #2EE268",
"^  c #868805",
"/  c #848C04",
"(  c #9CA206",
")  c #D7930F",
"_  c #DE8014",
"`  c #DE8317",
"'  c #EB9B0F",
"]  c #FF8319",
"[  c #ECAD12",
"{  c #96D10F",
"}  c #AACF0A",
"|  c #B7DA03",
" . c #81E311",
".. c #C6EA00",
"X. c #18008E",
"o. c #180094",
"O. c #03788F",
"+. c #0869A6",
"@. c #2303DF",
"#. c #1A3EDE",
"$. c #2600E0",
"%. c #2304E0",
"&. c #2305E0",
"*. c #2405E5",
"=. c #220CE0",
"-. c #2112E0",
";. c #1E27EF",
":. c #106ED0",
">. c #1367DF",
",. c #1178DE",
"<. c #155DE0",
"1. c #1462E0",
"2. c #0BB595",
"3. c #02ACBB",
"4. c #00ACC8",
"5. c #07ADD6",
"6. c #06BCE3",
"7. c #06C3C4",
"8. c #04CBD4",
"9. c #03C8DB",
"0. c #04D3D8",
"q. c #03D0E6",
"w. c None",
/* pixels */
"w.w.w.w.w.w.w.w.w.w.w.w.w.w.w.w.",
"w.w.w.w.w.w.w.w.w.m x l z b w.w.",
"w.w.w.w.w.w.w. .| _ N C B c w.w.",
"w.w.O . w.w.R { M h % - 6 v : w.",
"w.o w.w.4.~ ..) Z u * j ; e w.w.",
"w.w.w.;.2.Y ( n f r w ] k y w.w.",
"@ w.w.+.S H L s 4 = 9 A d 5 &   ",
"w.w.-.$ , < J / [ > q A 7 0 w.X ",
"# X.2 W 3 F D K ^ 8 a 1 g i w.+ ",
"w.o.:.5.O.3.G T P ' p t V w.w.w.",
"w.w.*.#.9.0.! U E } ` w.w.w.w.w.",
"w.w.@.%.<.6.8.Q I w.w.w.w.w.w.w.",
"w.w.w.&.$.,.q.7.w.w.w.w.w.w.w.w.",
"w.w.w.w.=.1.>.w.w.w.w.w.w.w.w.w.",
"w.w.w.w.w.w.w.w.w.w.w.w.w.w.w.w.",
"w.w.w.w.w.w.w.w.w.w.w.w.w.w.w.w."
};
