/* XPM */
static const char * oGeoDaIcon_16x16_xpm[] = {
"16 16 77 1",
" 	c None",
".	c #E57216",
"+	c #E67316",
"@	c #AFE004",
"#	c #C7AF0C",
"$	c #E47215",
"%	c #E57215",
"&	c #E67315",
"*	c #04E038",
"=	c #18DF31",
"-	c #CD9611",
";	c #E67216",
">	c #E57315",
",	c #04C9D1",
"'	c #4BDC35",
")	c #B6C00A",
"!	c #E57316",
"~	c #2304E0",
"{	c #107DA7",
"]	c #85DF10",
"^	c #D2980F",
"/	c #E67215",
"(	c #E47315",
"_	c #1749DF",
":	c #04DC50",
"<	c #3DDF25",
"[	c #AFE003",
"}	c #AEDE04",
"|	c #DD8013",
"1	c #2304DF",
"2	c #2204DF",
"3	c #0C97AC",
"4	c #04DF37",
"5	c #2CDE2B",
"6	c #96DF0B",
"7	c #AEDF03",
"8	c #C5B10B",
"9	c #D39510",
"0	c #E57314",
"a	c #1F19E0",
"b	c #04D09E",
"c	c #34DF28",
"d	c #ADDE03",
"e	c #AEE004",
"f	c #D78C11",
"g	c #E57214",
"h	c #1A35DF",
"i	c #03C8DF",
"j	c #04C9E0",
"k	c #04D19D",
"l	c #1DDD3B",
"m	c #77DF14",
"n	c #B7CE06",
"o	c #DF7E14",
"p	c #1C28DF",
"q	c #193CDF",
"r	c #03C4DF",
"s	c #03C5D5",
"t	c #04E037",
"u	c #0DDF35",
"v	c #7CDF13",
"w	c #ACDF04",
"x	c #C2B70A",
"y	c #DD8312",
"z	c #C8AB0C",
"A	c #1269DF",
"B	c #03C9E0",
"C	c #04D86C",
"D	c #72DF16",
"E	c #AEDF04",
"F	c #1845DF",
"G	c #04DA62",
"H	c #04DA63",
"I	c #2204E0",
"J	c #1556DF",
"K	c #04BEE0",
"L	c #04C8E0",
"                ",
"          .++++ ",
"        @#+$%.& ",
"      *=-;++>++ ",
"     ,')+!>%%.% ",
"   ~{*]^/(>$.+& ",
"   _:<[}|/(+%+& ",
" 123456789/0.%& ",
"12ab4*cdef/g>&+ ",
"~1hijklm[no.&!  ",
" 1pqrstuvwxyz   ",
"  ~2ABC44D[E    ",
"  ~2~FBGH       ",
"   ~IJKL        ",
"                ",
"                "};
